<svg width="25" height="25" viewBox="0 0 25 25" fill="none" xmlns="http://www.w3.org/2000/svg">
<path d="M13 5.5C11.4087 5.5 9.88258 6.13214 8.75736 7.25736C7.63214 8.38258 7 9.9087 7 11.5C7 15.55 12.2875 20.125 12.5125 20.32C12.6483 20.4362 12.8212 20.5 13 20.5C13.1788 20.5 13.3517 20.4362 13.4875 20.32C13.75 20.125 19 15.55 19 11.5C19 9.9087 18.3679 8.38258 17.2426 7.25736C16.1174 6.13214 14.5913 5.5 13 5.5V5.5ZM13 18.7375C11.4025 17.2375 8.5 14.005 8.5 11.5C8.5 10.3065 8.97411 9.16193 9.81802 8.31802C10.6619 7.47411 11.8065 7 13 7C14.1935 7 15.3381 7.47411 16.182 8.31802C17.0259 9.16193 17.5 10.3065 17.5 11.5C17.5 14.005 14.5975 17.245 13 18.7375ZM13 8.5C12.4067 8.5 11.8266 8.67595 11.3333 9.00559C10.8399 9.33524 10.4554 9.80377 10.2284 10.3519C10.0013 10.9001 9.94189 11.5033 10.0576 12.0853C10.1734 12.6672 10.4591 13.2018 10.8787 13.6213C11.2982 14.0409 11.8328 14.3266 12.4147 14.4424C12.9967 14.5581 13.5999 14.4987 14.1481 14.2716C14.6962 14.0446 15.1648 13.6601 15.4944 13.1667C15.8241 12.6734 16 12.0933 16 11.5C16 10.7044 15.6839 9.94129 15.1213 9.37868C14.5587 8.81607 13.7956 8.5 13 8.5ZM13 13C12.7033 13 12.4133 12.912 12.1666 12.7472C11.92 12.5824 11.7277 12.3481 11.6142 12.074C11.5006 11.7999 11.4709 11.4983 11.5288 11.2074C11.5867 10.9164 11.7296 10.6491 11.9393 10.4393C12.1491 10.2296 12.4164 10.0867 12.7074 10.0288C12.9983 9.97094 13.2999 10.0006 13.574 10.1142C13.8481 10.2277 14.0824 10.42 14.2472 10.6666C14.412 10.9133 14.5 11.2033 14.5 11.5C14.5 11.8978 14.342 12.2794 14.0607 12.5607C13.7794 12.842 13.3978 13 13 13Z" fill="white"/>
</svg>
