<svg width="13" height="13" viewBox="0 0 13 13" fill="none" xmlns="http://www.w3.org/2000/svg">
<g clip-path="url(#clip0_373_4114)">
<path d="M11.1465 8.57483L9.69183 7.14464C9.57928 7.03369 9.44203 6.95101 9.29135 6.90335C9.14067 6.8557 8.98083 6.84444 8.82495 6.8705C8.67681 6.89611 8.53634 6.95479 8.414 7.04219C8.29166 7.12958 8.19061 7.24344 8.11835 7.37529L7.81107 7.77737C7.78832 7.80653 7.75973 7.83061 7.72712 7.84805C7.69452 7.86549 7.65862 7.87592 7.62175 7.87866C7.58577 7.8812 7.54968 7.87594 7.51593 7.86322C7.48218 7.8505 7.45159 7.83063 7.42624 7.80498L5.19118 5.58504C5.16555 5.55873 5.14556 5.52747 5.13244 5.49317C5.11931 5.45887 5.11332 5.42225 5.11483 5.38556C5.11774 5.34951 5.12801 5.31444 5.14499 5.28251C5.16198 5.25057 5.18531 5.22246 5.21357 5.19989L5.61147 4.88719C5.74232 4.81315 5.8548 4.71057 5.94053 4.58706C6.02627 4.46355 6.08305 4.3223 6.10665 4.17382C6.13142 4.01682 6.1184 3.85617 6.06869 3.70521C6.01897 3.55424 5.93398 3.4173 5.82077 3.30573L4.35607 1.87561C4.08943 1.62521 3.73671 1.48693 3.37093 1.48941C3.00516 1.49188 2.65434 1.63492 2.39111 1.8889L0.8467 3.45938C0.414619 3.89231 0.41459 4.62733 0.861513 5.64933C1.12684 6.30724 1.50488 6.91383 1.97866 7.44182L5.63313 11.0472C6.16748 11.5138 6.77913 11.8836 7.44057 12.14C7.85187 12.3211 8.29357 12.4233 8.74263 12.4412C8.90574 12.4491 9.06873 12.4233 9.22146 12.3655C9.37419 12.3077 9.51338 12.2191 9.63038 12.1052L11.1798 10.5397C11.4346 10.274 11.5741 9.91842 11.5679 9.55038C11.5616 9.18235 11.4102 8.8317 11.1465 8.57483ZM10.4299 9.81971L8.88049 11.3852C8.58696 11.6022 6.93716 10.8984 6.33321 10.3174L2.67874 6.71206C2.07466 6.11114 1.36369 4.49091 1.57659 4.17946L3.121 2.60898C3.18881 2.54598 3.27778 2.51068 3.37034 2.51005C3.4629 2.50943 3.55233 2.54352 3.62099 2.6056L5.07053 4.01083L4.57311 4.3942C4.42997 4.50757 4.31211 4.64961 4.2271 4.8112C4.14208 4.9728 4.09179 5.15038 4.07944 5.33256C4.06849 5.5164 4.09688 5.70047 4.16271 5.87247C4.22854 6.04447 4.3303 6.20045 4.4612 6.33L6.69616 8.53493C6.8267 8.66515 6.98393 8.7655 7.15701 8.82907C7.33008 8.89264 7.51489 8.91792 7.69868 8.90316C7.88067 8.88835 8.05756 8.83566 8.21799 8.74847C8.37842 8.66128 8.51885 8.54151 8.63027 8.39685L8.96236 7.96459L8.96219 7.93959L8.96188 7.89459L10.4166 9.32479C10.4796 9.39106 10.5158 9.4783 10.5182 9.56968C10.5207 9.66107 10.4893 9.75014 10.4299 9.81971Z" fill="white"/>
</g>
<defs>
<clipPath id="clip0_373_4114">
<rect width="12" height="12" fill="white" transform="translate(0 1) rotate(-0.387546)"/>
</clipPath>
</defs>
</svg>
