<svg width="25" height="25" viewBox="0 0 25 25" fill="none" xmlns="http://www.w3.org/2000/svg">
<g clip-path="url(#clip0_373_4113)">
<path d="M18.8619 14.1001L16.9223 12.1932C16.7722 12.0453 16.5893 11.935 16.3883 11.8715C16.1874 11.8079 15.9743 11.7929 15.7665 11.8277C15.569 11.8618 15.3817 11.94 15.2185 12.0566C15.0554 12.1731 14.9207 12.3249 14.8243 12.5007L14.4146 13.0368C14.3843 13.0757 14.3462 13.1078 14.3027 13.1311C14.2592 13.1543 14.2114 13.1682 14.1622 13.1719C14.1142 13.1753 14.0661 13.1682 14.0211 13.1513C13.9761 13.1343 13.9353 13.1078 13.9015 13.0736L10.9214 10.1137C10.8873 10.0786 10.8606 10.037 10.8431 9.99122C10.8256 9.94549 10.8176 9.89666 10.8196 9.84774C10.8235 9.79967 10.8372 9.75291 10.8599 9.71034C10.8825 9.66776 10.9136 9.63027 10.9513 9.60017L11.4818 9.18324C11.6563 9.08453 11.8063 8.94775 11.9206 8.78307C12.0349 8.6184 12.1106 8.43006 12.1421 8.23209C12.1751 8.02275 12.1577 7.80856 12.0915 7.60727C12.0252 7.40598 11.9119 7.22339 11.7609 7.07464L9.80797 5.1678C9.45245 4.83394 8.98216 4.64957 8.49446 4.65287C8.00676 4.65617 7.539 4.84688 7.18803 5.18553L5.12881 7.2795C4.5527 7.85675 4.55266 8.83677 5.14856 10.1994C5.50233 11.0766 6.00639 11.8854 6.6381 12.5894L11.5107 17.3966C12.2232 18.0187 13.0387 18.5118 13.9206 18.8536C14.469 19.0951 15.058 19.2314 15.6567 19.2552C15.8742 19.2658 16.0915 19.2314 16.2952 19.1544C16.4988 19.0773 16.6844 18.9591 16.8404 18.8072L18.9063 16.7199C19.246 16.3657 19.432 15.8916 19.4237 15.4008C19.4154 14.9101 19.2135 14.4426 18.8619 14.1001ZM17.9065 15.7599L15.8405 17.8473C15.4492 18.1366 13.2494 17.1981 12.4442 16.4236L7.57154 11.6164C6.7661 10.8152 5.81813 8.65487 6.10199 8.23961L8.16121 6.14563C8.25163 6.06163 8.37025 6.01457 8.49366 6.01373C8.61707 6.0129 8.73632 6.05835 8.82786 6.14112L10.7606 8.01476L10.0974 8.52592C9.9065 8.67708 9.74936 8.86647 9.63601 9.08193C9.52265 9.29739 9.4556 9.53417 9.43914 9.77707C9.42453 10.0222 9.46238 10.2676 9.55016 10.4969C9.63793 10.7263 9.77361 10.9343 9.94814 11.107L12.9281 14.0469C13.1021 14.2205 13.3118 14.3543 13.5426 14.4391C13.7733 14.5239 14.0197 14.5576 14.2648 14.5379C14.5074 14.5181 14.7433 14.4479 14.9572 14.3316C15.1711 14.2154 15.3584 14.0557 15.5069 13.8628L15.9497 13.2864L15.9495 13.2531L15.9491 13.1931L17.8887 15.1C17.9726 15.1884 18.0209 15.3047 18.0242 15.4266C18.0275 15.5484 17.9855 15.6672 17.9065 15.7599Z" fill="white"/>
</g>
<defs>
<clipPath id="clip0_373_4113">
<rect width="16" height="16" fill="white" transform="translate(4 4) rotate(-0.387546)"/>
</clipPath>
</defs>
</svg>
