<svg width="25" height="25" viewBox="0 0 25 25" fill="none" xmlns="http://www.w3.org/2000/svg">
<path d="M18.6 6H7.4C6.76348 6 6.15303 6.27656 5.70294 6.76884C5.25286 7.26113 5 7.92881 5 8.625V17.375C5 18.0712 5.25286 18.7389 5.70294 19.2312C6.15303 19.7234 6.76348 20 7.4 20H18.6C19.2365 20 19.847 19.7234 20.2971 19.2312C20.7471 18.7389 21 18.0712 21 17.375V8.625C21 7.92881 20.7471 7.26113 20.2971 6.76884C19.847 6.27656 19.2365 6 18.6 6ZM18.272 7.75L13.568 12.895C13.4936 12.977 13.4051 13.0421 13.3077 13.0865C13.2102 13.131 13.1056 13.1538 13 13.1538C12.8944 13.1538 12.7898 13.131 12.6923 13.0865C12.5949 13.0421 12.5064 12.977 12.432 12.895L7.728 7.75H18.272ZM19.4 17.375C19.4 17.6071 19.3157 17.8296 19.1657 17.9937C19.0157 18.1578 18.8122 18.25 18.6 18.25H7.4C7.18783 18.25 6.98434 18.1578 6.83431 17.9937C6.68429 17.8296 6.6 17.6071 6.6 17.375V8.98375L11.304 14.1287C11.754 14.6203 12.364 14.8964 13 14.8964C13.636 14.8964 14.246 14.6203 14.696 14.1287L19.4 8.98375V17.375Z" fill="white"/>
</svg>
