<svg width="140" height="23" viewBox="0 0 140 23" fill="none" xmlns="http://www.w3.org/2000/svg">
<path d="M12.27 22.11C11.97 22.11 11.68 22.05 11.4 21.93C11.14 21.79 10.93 21.56 10.77 21.24L6.66 13.26H4.68V20.49C4.68 20.97 4.43 21.33 3.93 21.57C3.45 21.81 2.92 21.93 2.34 21.93C1.76 21.93 1.22 21.81 0.720003 21.57C0.240003 21.33 0 20.97 0 20.49V1.41C0 1.03 0.130003 0.7 0.390003 0.42C0.650003 0.14 1 0 1.44 0H7.65C9.03 0 10.27 0.2 11.37 0.599999C12.49 0.98 13.38 1.64 14.04 2.58C14.7 3.5 15.03 4.78 15.03 6.42C15.03 7.54 14.87 8.51 14.55 9.33C14.25 10.13 13.82 10.79 13.26 11.31C12.72 11.83 12.1 12.23 11.4 12.51L15.06 19.14C15.12 19.22 15.16 19.31 15.18 19.41C15.2 19.51 15.21 19.6 15.21 19.68C15.21 20.06 15.06 20.44 14.76 20.82C14.46 21.2 14.08 21.51 13.62 21.75C13.18 21.99 12.73 22.11 12.27 22.11ZM4.68 9.66H7.65C8.49 9.66 9.15 9.46 9.63 9.06C10.11 8.64 10.35 7.91 10.35 6.87C10.35 5.81 10.11 5.08 9.63 4.68C9.15 4.28 8.49 4.08 7.65 4.08H4.68V9.66ZM24.0066 22.23C22.5266 22.23 21.2166 21.97 20.0766 21.45C18.9366 20.91 18.0366 20.16 17.3766 19.2C16.7366 18.24 16.4166 17.13 16.4166 15.87V13.68C16.4166 12.56 16.7266 11.53 17.3466 10.59C17.9666 9.65 18.7966 8.9 19.8366 8.34C20.8766 7.76 22.0366 7.47 23.3166 7.47C24.4766 7.47 25.5366 7.71 26.4966 8.19C27.4766 8.67 28.2666 9.34 28.8666 10.2C29.4666 11.04 29.7666 12.03 29.7666 13.17C29.7666 14.07 29.6166 14.72 29.3166 15.12C29.0366 15.5 28.6666 15.74 28.2066 15.84C27.7666 15.92 27.3166 15.96 26.8566 15.96H21.0666V16.14C21.0666 16.88 21.3466 17.48 21.9066 17.94C22.4666 18.38 23.2066 18.6 24.1266 18.6C24.7466 18.6 25.2766 18.51 25.7166 18.33C26.1566 18.13 26.5466 17.94 26.8866 17.76C27.2266 17.58 27.5566 17.49 27.8766 17.49C28.2366 17.49 28.5466 17.61 28.8066 17.85C29.0666 18.09 29.2566 18.37 29.3766 18.69C29.5166 19.01 29.5866 19.29 29.5866 19.53C29.5866 19.91 29.3566 20.31 28.8966 20.73C28.4366 21.15 27.7866 21.51 26.9466 21.81C26.1266 22.09 25.1466 22.23 24.0066 22.23ZM21.0666 13.35H24.7866C25.0066 13.35 25.1666 13.3 25.2666 13.2C25.3666 13.1 25.4166 12.91 25.4166 12.63C25.4166 12.23 25.3066 11.9 25.0866 11.64C24.8866 11.36 24.6166 11.16 24.2766 11.04C23.9566 10.9 23.6066 10.83 23.2266 10.83C22.8666 10.83 22.5166 10.9 22.1766 11.04C21.8566 11.16 21.5866 11.36 21.3666 11.64C21.1666 11.9 21.0666 12.23 21.0666 12.63V13.35ZM34.1494 21.93C33.4694 21.93 32.9094 21.78 32.4694 21.48C32.0494 21.18 31.8394 20.85 31.8394 20.49V9.06C31.8394 8.64 32.0494 8.3 32.4694 8.04C32.9094 7.78 33.4694 7.65 34.1494 7.65C34.7094 7.65 35.1894 7.78 35.5894 8.04C35.9894 8.3 36.1894 8.64 36.1894 9.06V9.75C36.4694 9.17 36.9594 8.65 37.6594 8.19C38.3594 7.71 39.2094 7.47 40.2094 7.47C41.1294 7.47 41.9694 7.76 42.7294 8.34C43.5094 8.9 44.1294 9.66 44.5894 10.62C45.0694 11.56 45.3094 12.61 45.3094 13.77V20.49C45.3094 20.97 45.0594 21.33 44.5594 21.57C44.0794 21.81 43.5494 21.93 42.9694 21.93C42.4294 21.93 41.9094 21.81 41.4094 21.57C40.9094 21.33 40.6594 20.97 40.6594 20.49V13.77C40.6594 13.39 40.5594 13.03 40.3594 12.69C40.1794 12.35 39.9194 12.07 39.5794 11.85C39.2594 11.63 38.8994 11.52 38.4994 11.52C38.1794 11.52 37.8594 11.61 37.5394 11.79C37.2394 11.97 36.9894 12.23 36.7894 12.57C36.5894 12.89 36.4894 13.29 36.4894 13.77V20.49C36.4894 20.85 36.2594 21.18 35.7994 21.48C35.3394 21.78 34.7894 21.93 34.1494 21.93ZM54.1348 22.23C52.9148 22.23 51.7848 21.94 50.7448 21.36C49.7248 20.76 48.8948 19.98 48.2548 19.02C47.6348 18.04 47.3248 16.99 47.3248 15.87V13.77C47.3248 12.65 47.6248 11.61 48.2248 10.65C48.8448 9.69 49.6748 8.92 50.7148 8.34C51.7548 7.76 52.8948 7.47 54.1348 7.47C55.3548 7.47 56.4848 7.76 57.5248 8.34C58.5648 8.9 59.3948 9.66 60.0148 10.62C60.6548 11.56 60.9748 12.61 60.9748 13.77V15.87C60.9748 16.97 60.6548 18.01 60.0148 18.99C59.3948 19.95 58.5648 20.73 57.5248 21.33C56.4848 21.93 55.3548 22.23 54.1348 22.23ZM54.1348 18.18C54.5348 18.18 54.8948 18.07 55.2148 17.85C55.5548 17.63 55.8248 17.35 56.0248 17.01C56.2248 16.65 56.3248 16.27 56.3248 15.87V13.77C56.3248 13.39 56.2248 13.03 56.0248 12.69C55.8248 12.35 55.5548 12.07 55.2148 11.85C54.8948 11.63 54.5348 11.52 54.1348 11.52C53.7348 11.52 53.3648 11.63 53.0248 11.85C52.7048 12.07 52.4448 12.35 52.2448 12.69C52.0648 13.03 51.9748 13.39 51.9748 13.77V15.87C51.9748 16.27 52.0648 16.65 52.2448 17.01C52.4448 17.35 52.7048 17.63 53.0248 17.85C53.3648 18.07 53.7348 18.18 54.1348 18.18ZM69.2212 22.32C68.7612 22.32 68.3212 22.25 67.9012 22.11C67.5012 21.97 67.2412 21.77 67.1212 21.51L61.8412 9.96C61.8012 9.88 61.7612 9.79 61.7212 9.69C61.7012 9.57 61.6912 9.47 61.6912 9.39C61.6912 9.03 61.8712 8.7 62.2312 8.4C62.5912 8.1 63.0112 7.87 63.4912 7.71C63.9912 7.53 64.4412 7.44 64.8412 7.44C65.1212 7.44 65.3812 7.5 65.6212 7.62C65.8612 7.72 66.0312 7.91 66.1312 8.19L69.2212 16.02L72.3112 8.19C72.4112 7.91 72.5712 7.72 72.7912 7.62C73.0312 7.5 73.2912 7.44 73.5712 7.44C73.8912 7.44 74.3012 7.53 74.8012 7.71C75.3012 7.89 75.7412 8.13 76.1212 8.43C76.5212 8.73 76.7212 9.06 76.7212 9.42C76.7212 9.52 76.7112 9.61 76.6912 9.69C76.6712 9.77 76.6412 9.86 76.6012 9.96L71.3212 21.51C71.2012 21.77 70.9312 21.97 70.5112 22.11C70.1112 22.25 69.6812 22.32 69.2212 22.32ZM81.1291 22.23C80.0891 22.23 79.1891 21.91 78.4291 21.27C77.6691 20.61 77.2891 19.6 77.2891 18.24C77.2891 17.06 77.5891 16.14 78.1891 15.48C78.7891 14.82 79.6091 14.36 80.6491 14.1C81.7091 13.84 82.9291 13.71 84.3091 13.71H85.3891V13.41C85.3891 13.07 85.3191 12.73 85.1791 12.39C85.0391 12.05 84.8091 11.77 84.4891 11.55C84.1691 11.31 83.7191 11.19 83.1391 11.19C82.3191 11.19 81.7091 11.27 81.3091 11.43C80.9091 11.59 80.5991 11.76 80.3791 11.94C80.1591 12.1 79.9091 12.18 79.6291 12.18C79.1291 12.18 78.7391 11.93 78.4591 11.43C78.1991 10.93 78.0691 10.41 78.0691 9.87C78.0691 9.39 78.3391 8.97 78.8791 8.61C79.4391 8.25 80.1091 7.97 80.8891 7.77C81.6891 7.57 82.4591 7.47 83.1991 7.47C84.8391 7.47 86.1591 7.75 87.1591 8.31C88.1591 8.87 88.8891 9.6 89.3491 10.5C89.8091 11.38 90.0391 12.33 90.0391 13.35V20.49C90.0391 20.89 89.8191 21.23 89.3791 21.51C88.9591 21.79 88.4191 21.93 87.7591 21.93C87.1791 21.93 86.6891 21.79 86.2891 21.51C85.8891 21.23 85.6891 20.89 85.6891 20.49V19.83C85.1491 20.45 84.5191 21.01 83.7991 21.51C83.0791 21.99 82.1891 22.23 81.1291 22.23ZM83.1391 18.84C83.4591 18.84 83.7891 18.72 84.1291 18.48C84.4691 18.22 84.7591 17.88 84.9991 17.46C85.2591 17.04 85.3891 16.58 85.3891 16.08V15.96H85.2691C84.7091 15.96 84.1691 16 83.6491 16.08C83.1491 16.14 82.7391 16.29 82.4191 16.53C82.1191 16.75 81.9691 17.1 81.9691 17.58C81.9691 18.02 82.0791 18.34 82.2991 18.54C82.5191 18.74 82.7991 18.84 83.1391 18.84ZM98.4504 21.93C96.5504 21.93 95.0904 21.53 94.0704 20.73C93.0704 19.91 92.5704 18.62 92.5704 16.86V2.85C92.5704 2.43 92.8204 2.09 93.3204 1.83C93.8204 1.57 94.3404 1.44 94.8804 1.44C95.4604 1.44 95.9904 1.57 96.4704 1.83C96.9704 2.09 97.2204 2.43 97.2204 2.85V7.65H100.611C100.991 7.65 101.271 7.83 101.451 8.19C101.651 8.53 101.751 8.9 101.751 9.3C101.751 9.72 101.651 10.1 101.451 10.44C101.271 10.78 100.991 10.95 100.611 10.95H97.2204V16.86C97.2204 17.3 97.3104 17.61 97.4904 17.79C97.6704 17.95 97.9904 18.03 98.4504 18.03H99.7407C100.421 18.03 100.921 18.24 101.241 18.66C101.561 19.06 101.721 19.5 101.721 19.98C101.721 20.48 101.561 20.93 101.241 21.33C100.921 21.73 100.421 21.93 99.7407 21.93H98.4504ZM105.868 4.89C105.188 4.89 104.608 4.67 104.128 4.23C103.648 3.79 103.408 3.29 103.408 2.73C103.408 2.15 103.648 1.65 104.128 1.23C104.608 0.809999 105.188 0.599999 105.868 0.599999C106.548 0.599999 107.118 0.809999 107.578 1.23C108.058 1.65 108.298 2.15 108.298 2.73C108.298 3.29 108.058 3.79 107.578 4.23C107.118 4.67 106.548 4.89 105.868 4.89ZM105.868 21.93C105.188 21.93 104.628 21.78 104.188 21.48C103.768 21.18 103.558 20.85 103.558 20.49V9.06C103.558 8.64 103.768 8.3 104.188 8.04C104.628 7.78 105.188 7.65 105.868 7.65C106.508 7.65 107.058 7.78 107.518 8.04C107.978 8.3 108.208 8.64 108.208 9.06V20.49C108.208 20.85 107.978 21.18 107.518 21.48C107.058 21.78 106.508 21.93 105.868 21.93ZM117.153 22.23C115.933 22.23 114.803 21.94 113.763 21.36C112.743 20.76 111.913 19.98 111.273 19.02C110.653 18.04 110.343 16.99 110.343 15.87V13.77C110.343 12.65 110.643 11.61 111.243 10.65C111.863 9.69 112.693 8.92 113.733 8.34C114.773 7.76 115.913 7.47 117.153 7.47C118.373 7.47 119.503 7.76 120.543 8.34C121.583 8.9 122.413 9.66 123.033 10.62C123.673 11.56 123.993 12.61 123.993 13.77V15.87C123.993 16.97 123.673 18.01 123.033 18.99C122.413 19.95 121.583 20.73 120.543 21.33C119.503 21.93 118.373 22.23 117.153 22.23ZM117.153 18.18C117.553 18.18 117.913 18.07 118.233 17.85C118.573 17.63 118.843 17.35 119.043 17.01C119.243 16.65 119.343 16.27 119.343 15.87V13.77C119.343 13.39 119.243 13.03 119.043 12.69C118.843 12.35 118.573 12.07 118.233 11.85C117.913 11.63 117.553 11.52 117.153 11.52C116.753 11.52 116.383 11.63 116.043 11.85C115.723 12.07 115.463 12.35 115.263 12.69C115.083 13.03 114.993 13.39 114.993 13.77V15.87C114.993 16.27 115.083 16.65 115.263 17.01C115.463 17.35 115.723 17.63 116.043 17.85C116.383 18.07 116.753 18.18 117.153 18.18ZM128.456 21.93C127.776 21.93 127.216 21.78 126.776 21.48C126.356 21.18 126.146 20.85 126.146 20.49V9.06C126.146 8.64 126.356 8.3 126.776 8.04C127.216 7.78 127.776 7.65 128.456 7.65C129.016 7.65 129.496 7.78 129.896 8.04C130.296 8.3 130.496 8.64 130.496 9.06V9.75C130.776 9.17 131.266 8.65 131.966 8.19C132.666 7.71 133.516 7.47 134.516 7.47C135.436 7.47 136.276 7.76 137.036 8.34C137.816 8.9 138.436 9.66 138.896 10.62C139.376 11.56 139.616 12.61 139.616 13.77V20.49C139.616 20.97 139.366 21.33 138.866 21.57C138.386 21.81 137.856 21.93 137.276 21.93C136.736 21.93 136.216 21.81 135.716 21.57C135.216 21.33 134.966 20.97 134.966 20.49V13.77C134.966 13.39 134.866 13.03 134.666 12.69C134.486 12.35 134.226 12.07 133.886 11.85C133.566 11.63 133.206 11.52 132.806 11.52C132.486 11.52 132.166 11.61 131.846 11.79C131.546 11.97 131.296 12.23 131.096 12.57C130.896 12.89 130.796 13.29 130.796 13.77V20.49C130.796 20.85 130.566 21.18 130.106 21.48C129.646 21.78 129.096 21.93 128.456 21.93Z" fill="white"/>
</svg>
