<svg width="1920" height="252" viewBox="0 0 1920 252" fill="none" xmlns="http://www.w3.org/2000/svg">
<path fill-rule="evenodd" clip-rule="evenodd" d="M0 108L52.8 120C107.2 132 212.8 156 320 162C427.2 168 532.8 156 640 126C747.2 96 852.8 48 960 42C1067.2 36 1172.8 72 1280 90C1387.2 108 1492.8 108 1600 90C1707.2 72 1812.8 36 1867.2 18L1920 0V252H1867.2C1812.8 252 1707.2 252 1600 252C1492.8 252 1387.2 252 1280 252C1172.8 252 1067.2 252 960 252C852.8 252 747.2 252 640 252C532.8 252 427.2 252 320 252C212.8 252 107.2 252 52.8 252H0V108Z" fill="url(#paint0_linear_183_1250)"/>
<defs>
<linearGradient id="paint0_linear_183_1250" x1="960" y1="0" x2="960" y2="252" gradientUnits="userSpaceOnUse">
<stop stop-color="white" stop-opacity="0"/>
<stop offset="0.273958" stop-color="white" stop-opacity="0.5"/>
<stop offset="0.857292" stop-color="white"/>
</linearGradient>
</defs>
</svg>
