<svg width="1920" height="247" viewBox="0 0 1920 247" fill="none" xmlns="http://www.w3.org/2000/svg">
<path fill-rule="evenodd" clip-rule="evenodd" d="M0 103L52.8 115C107.2 127 212.8 151 320 157C427.2 163 532.8 151 640 121C747.2 91 852.8 43 960 37C1067.2 31 1172.8 67 1280 85C1387.2 103 1492.8 103 1600 85C1707.2 67 1812.8 31 1867.2 13L1920 -5V247H1867.2C1812.8 247 1707.2 247 1600 247C1492.8 247 1387.2 247 1280 247C1172.8 247 1067.2 247 960 247C852.8 247 747.2 247 640 247C532.8 247 427.2 247 320 247C212.8 247 107.2 247 52.8 247H0V103Z" fill="url(#paint0_linear_46_97)"/>
<defs>
<linearGradient id="paint0_linear_46_97" x1="960" y1="-5" x2="960" y2="247" gradientUnits="userSpaceOnUse">
<stop stop-color="#D585FA"/>
<stop offset="1" stop-color="#0099FF" stop-opacity="0"/>
</linearGradient>
</defs>
</svg>
